<svg width="487" height="142" viewBox="0 0 487 142" fill="none" xmlns="http://www.w3.org/2000/svg">
<g clip-path="url(#clip0_15_64)">
<path d="M220.79 77.66L228.73 27.6H233.82L242.55 77.66H238.03L236.46 67.56H226.71L225.26 77.66H220.79ZM227.28 63.95H235.84L231.43 36.07H231.34L227.28 63.95Z" fill="black"/>
<path d="M248.17 77.66V26.98H252.86V55.82L261.99 35H266.68L257.17 56.13L267.17 77.66H262.27L252.83 56.66V77.66H248.17Z" fill="black"/>
<path d="M279.6 78.22C276.6 78.22 274.38 77.27 272.93 75.35C271.48 73.43 270.76 70.35 270.76 66.02V62.5H275.42V65.5C275.327 67.6572 275.646 69.8122 276.36 71.85C276.547 72.4783 276.928 73.031 277.449 73.4283C277.971 73.8256 278.605 74.0468 279.26 74.06C279.809 74.1094 280.361 74.0167 280.864 73.7908C281.367 73.5648 281.803 73.2133 282.13 72.77C282.72 71.91 283.02 70.35 283.02 68.09C283.02 67.0664 282.923 66.0452 282.73 65.04C282.514 63.968 282.125 62.9381 281.58 61.99C280.862 60.7847 279.965 59.6955 278.92 58.76L275.82 55.81C274.083 54.251 272.69 52.3472 271.73 50.22C270.91 48.2913 270.492 46.2158 270.5 44.12C270.5 40.86 271.26 38.4433 272.78 36.87C273.569 36.0742 274.516 35.453 275.56 35.0464C276.603 34.6399 277.721 34.4571 278.84 34.51C280.383 34.4668 281.903 34.8922 283.2 35.73C284.569 36.7541 285.561 38.2029 286.02 39.85C286.764 42.4286 287.102 45.1074 287.02 47.79V50.29H282.58V46.99C282.687 44.8687 282.399 42.7459 281.73 40.73C281.539 40.1431 281.165 39.6326 280.663 39.2729C280.161 38.9131 279.558 38.723 278.94 38.73C278.354 38.6855 277.767 38.8144 277.253 39.1006C276.739 39.3869 276.321 39.8179 276.05 40.34C275.163 42.5633 274.961 45.001 275.47 47.34C275.72 48.2685 276.125 49.1477 276.67 49.94C277.405 51.027 278.253 52.0326 279.2 52.94L282.2 55.84C284.033 57.526 285.502 59.5675 286.52 61.84C287.398 63.8973 287.844 66.1132 287.83 68.35C287.949 70.9051 287.248 73.4312 285.83 75.56C284.5 77.31 282.43 78.22 279.6 78.22Z" fill="black"/>
<path d="M293.96 77.66V26.98H298.66V39.26C299.115 37.922 299.979 36.7608 301.13 35.94C302.388 34.9584 303.944 34.4362 305.54 34.46C306.428 34.4342 307.309 34.6138 308.116 34.9851C308.922 35.3563 309.632 35.909 310.19 36.6C311.37 38.04 311.97 40.28 311.97 43.33V77.66H307.27V43.66C307.27 41.66 306.92 40.37 306.21 39.66C305.461 38.9777 304.473 38.6184 303.46 38.66C302.67 38.6653 301.89 38.8357 301.17 39.16C300.402 39.5107 299.765 40.0953 299.35 40.83C298.839 41.8197 298.601 42.9277 298.66 44.04V77.63L293.96 77.66Z" fill="black"/>
<path d="M326.56 78C325.503 78.0539 324.452 77.8108 323.526 77.2983C322.6 76.7858 321.836 76.0243 321.32 75.1C320.18 73.16 319.62 70.42 319.62 66.88V61.79C319.569 60.3602 319.897 58.9424 320.57 57.68C321.232 56.5339 322.145 55.5527 323.24 54.81C324.501 53.9408 325.84 53.1909 327.24 52.57C328.773 51.9033 330.44 51.1933 332.24 50.44V47.44C332.24 45.35 332.19 43.66 332.07 42.36C332.048 41.3282 331.728 40.3247 331.15 39.47C330.835 39.1323 330.447 38.8718 330.015 38.7088C329.583 38.5457 329.119 38.4845 328.66 38.53C328.202 38.4955 327.743 38.5588 327.312 38.7157C326.881 38.8726 326.488 39.1195 326.16 39.44C325.538 40.2891 325.189 41.3077 325.16 42.36C324.984 44.1109 324.907 45.8704 324.93 47.63V48.83H320.17V47.66C320.163 45.9905 320.239 44.3218 320.4 42.66C320.518 41.2088 320.872 39.7866 321.45 38.45C321.984 37.2487 322.869 36.2376 323.99 35.55C325.433 34.7709 327.062 34.4042 328.7 34.49C330.314 34.4073 331.922 34.7522 333.36 35.49C334.483 36.1408 335.348 37.1575 335.81 38.37C336.372 39.8804 336.692 41.4699 336.76 43.08C336.88 44.95 336.95 47.08 336.95 49.55V77.68H332.17V74.35C331.961 74.8846 331.671 75.3839 331.31 75.83C330.804 76.4682 330.166 76.99 329.44 77.36C328.548 77.8097 327.558 78.0297 326.56 78V78ZM327.56 74.13C328.612 74.1343 329.634 73.7818 330.46 73.13C331.169 72.6441 331.761 72.0051 332.19 71.26V53.94C330.51 54.7 329.14 55.35 328.1 55.94C327.215 56.3752 326.407 56.9529 325.71 57.65C325.152 58.2505 324.765 58.9895 324.59 59.79C324.368 60.862 324.267 61.9555 324.29 63.05V66.61C324.194 68.5683 324.411 70.5294 324.93 72.42C325.113 72.963 325.474 73.4278 325.956 73.7385C326.437 74.0491 327.01 74.1871 327.58 74.13H327.56Z" fill="black"/>
<path d="M344.17 84.54V80.67H345.85C346.663 80.67 347.403 80.64 348.07 80.58C348.503 80.6018 348.931 80.4825 349.29 80.24C349.455 80.0388 349.574 79.8037 349.638 79.5513C349.702 79.299 349.71 79.0356 349.66 78.78C349.6 78.11 349.51 77.33 349.38 76.46L342.29 35H346.96L350.26 57.44L351.59 69.04H351.99L353.19 57.44L356.19 35H360.8L353.95 77.83C353.75 79.1649 353.459 80.4846 353.08 81.78C352.854 82.6506 352.312 83.4061 351.56 83.9C350.56 84.3875 349.451 84.608 348.34 84.54H344.17Z" fill="black"/>
<path d="M387.3 78.22C385.619 78.3066 383.949 77.8962 382.5 77.04C381.293 76.2476 380.355 75.1073 379.81 73.77C379.168 72.2159 378.764 70.5743 378.61 68.9C378.403 66.9068 378.303 64.9039 378.31 62.9V57.81H382.92V62.9C382.794 65.8399 383.087 68.7827 383.79 71.64C383.999 72.4479 384.484 73.1568 385.163 73.6429C385.841 74.1291 386.668 74.3617 387.5 74.3C388.017 74.3411 388.537 74.2733 389.026 74.1011C389.515 73.9288 389.963 73.6559 390.34 73.3C391.014 72.4402 391.402 71.3913 391.45 70.3C391.621 68.4952 391.698 66.6828 391.68 64.87C391.757 62.7838 391.417 60.7032 390.68 58.75C389.869 56.9888 388.705 55.4129 387.26 54.12L384.26 51.24C383.35 50.37 382.41 49.38 381.45 48.24C380.453 47.0751 379.631 45.7715 379.01 44.37C378.324 42.7725 377.984 41.0483 378.01 39.31C377.979 37.1367 378.211 34.9677 378.7 32.85C379.063 31.1428 379.989 29.6072 381.33 28.49C383.014 27.323 385.046 26.7656 387.09 26.91C388.768 26.8167 390.437 27.2164 391.89 28.06C393.055 28.8364 393.941 29.9645 394.42 31.28C394.985 32.8228 395.322 34.4399 395.42 36.08C395.56 37.91 395.64 39.91 395.64 42.08V44.95H391.34V41.76C391.378 39.5739 391.255 37.3879 390.97 35.22C390.864 34.0122 390.428 32.8567 389.71 31.88C389.371 31.5368 388.963 31.2701 388.513 31.0976C388.063 30.9251 387.581 30.8509 387.1 30.88C386.192 30.837 385.292 31.0707 384.52 31.55C383.766 32.12 383.253 32.951 383.08 33.88C382.744 35.4265 382.596 37.008 382.64 38.59C382.599 39.8408 382.775 41.0893 383.16 42.28C383.523 43.2378 384.066 44.117 384.76 44.87C385.47 45.65 386.35 46.58 387.42 47.66L390.35 50.66C392.178 52.4677 393.683 54.5748 394.8 56.89C395.954 59.4799 396.511 62.2959 396.43 65.13C396.462 67.4388 396.231 69.7438 395.74 72C395.381 73.7752 394.45 75.3838 393.09 76.58C391.414 77.7925 389.363 78.3733 387.3 78.22V78.22Z" fill="black"/>
<path d="M402.83 31.07V26.61H407.52V31.07H402.83ZM402.83 77.66V35H407.55V77.66H402.83Z" fill="black"/>
<path d="M416.45 77.66V35H421.17V39.26C421.625 37.9246 422.485 36.7642 423.63 35.94C424.894 34.954 426.457 34.4316 428.06 34.46C428.949 34.431 429.833 34.6093 430.642 34.9807C431.451 35.3521 432.162 35.9065 432.72 36.6C433.9 38.04 434.48 40.28 434.48 43.33V77.66H429.79V43.07C429.859 42.4307 429.792 41.784 429.594 41.1723C429.396 40.5605 429.071 39.9975 428.64 39.52C427.858 38.8392 426.846 38.4816 425.81 38.52C425.045 38.5189 424.287 38.6685 423.58 38.96C422.863 39.2643 422.255 39.7807 421.84 40.44C421.351 41.3219 421.119 42.323 421.17 43.33V77.66H416.45Z" fill="black"/>
<path d="M450.8 84.23C449.195 84.3055 447.59 84.0921 446.06 83.6C444.708 83.1928 443.437 82.5569 442.3 81.72L444.06 78.25C444.909 78.8485 445.825 79.3452 446.79 79.73C448.065 80.2136 449.429 80.4182 450.79 80.33C451.358 80.332 451.918 80.1999 452.426 79.9445C452.933 79.6891 453.373 79.3175 453.71 78.86C454.474 77.7379 454.846 76.3953 454.77 75.04V70.55C454.378 71.7099 453.569 72.6827 452.5 73.28C451.559 73.7113 450.535 73.9331 449.5 73.93C448.648 73.9841 447.795 73.8459 447.004 73.5257C446.213 73.2054 445.504 72.7114 444.93 72.08C443.785 70.6311 443.04 68.907 442.77 67.08C442.361 64.7124 442.167 62.3126 442.19 59.91V48.65C442.161 46.2148 442.419 43.7846 442.96 41.41C443.341 39.5213 444.206 37.7638 445.47 36.31C446.068 35.6811 446.798 35.1918 447.607 34.8773C448.416 34.5627 449.284 34.4305 450.15 34.49C451.129 34.494 452.091 34.7524 452.94 35.24C453.836 35.7982 454.5 36.6612 454.81 37.67V35H459.51V74.56C459.495 75.5522 459.381 76.5404 459.17 77.51C458.935 78.6107 458.505 79.6606 457.9 80.61C457.235 81.6309 456.333 82.4751 455.27 83.07C453.898 83.8192 452.363 84.2177 450.8 84.23ZM451.23 70.01C451.987 70.0371 452.724 69.7639 453.28 69.25C453.946 68.4421 454.354 67.4526 454.45 66.41C454.731 64.3793 454.852 62.3296 454.81 60.28V47.65C454.896 45.3359 454.664 43.0209 454.12 40.77C453.944 40.0742 453.524 39.4645 452.937 39.0517C452.35 38.6389 451.634 38.4502 450.92 38.52C450.416 38.4825 449.91 38.5686 449.446 38.7707C448.983 38.9728 448.576 39.285 448.26 39.68C447.616 40.6243 447.23 41.7205 447.14 42.86C446.956 44.4332 446.869 46.0162 446.88 47.6V60.34C446.765 62.8119 447.063 65.2857 447.76 67.66C447.993 68.383 448.461 69.0073 449.09 69.4332C449.719 69.8591 450.472 70.0622 451.23 70.01V70.01Z" fill="black"/>
<path d="M468.01 77.66V26.98H472.7V39.26C473.159 37.9213 474.027 36.7602 475.18 35.94C476.438 34.9584 477.994 34.4362 479.59 34.46C480.478 34.4342 481.359 34.6138 482.166 34.9851C482.972 35.3563 483.682 35.909 484.24 36.6C485.42 38.04 486.01 40.2834 486.01 43.33V77.66H481.32V43.66C481.32 41.66 480.96 40.37 480.25 39.66C479.504 38.9783 478.519 38.6189 477.51 38.66C476.72 38.6642 475.94 38.8345 475.22 39.16C474.452 39.5107 473.815 40.0953 473.4 40.83C472.881 41.8171 472.639 42.9264 472.7 44.04V77.63L468.01 77.66Z" fill="black"/>
<path d="M221.01 109.07V89.74H226.17V91.07H222.7V98.07H225.99V99.38H222.7V109.07H221.01Z" fill="black"/>
<path d="M228.64 109.07V92.6H230.29V94.43C230.453 93.838 230.804 93.315 231.29 92.94C231.822 92.5677 232.461 92.3782 233.11 92.4C233.11 92.4 233.11 92.47 233.11 92.61C233.11 92.75 233.11 92.91 233.11 93.1V93.79C232.772 93.7922 232.436 93.8393 232.11 93.93C231.77 94.0248 231.454 94.1882 231.18 94.41C230.83 94.6948 230.526 95.0321 230.28 95.41V109.07H228.64Z" fill="black"/>
<path d="M238.23 109.27C237.602 109.303 236.978 109.157 236.43 108.85C235.978 108.567 235.627 108.146 235.43 107.65C235.205 107.057 235.073 106.433 235.04 105.8C234.98 105.09 234.96 104.31 234.96 103.46V97.94C234.956 97.2154 234.989 96.4912 235.06 95.77C235.105 95.1615 235.247 94.564 235.48 94C235.686 93.5147 236.035 93.1033 236.48 92.82C237.018 92.5154 237.632 92.3698 238.25 92.4C238.86 92.3627 239.467 92.5127 239.99 92.83C240.409 93.1292 240.724 93.5524 240.89 94.04C241.082 94.6221 241.193 95.2278 241.22 95.84C241.22 96.53 241.28 97.27 241.28 98.07V100.81H236.62V104.13C236.59 105.07 236.67 106.009 236.86 106.93C236.935 107.216 237.112 107.464 237.356 107.63C237.601 107.795 237.897 107.866 238.19 107.83C238.38 107.853 238.572 107.826 238.748 107.75C238.924 107.675 239.076 107.554 239.19 107.4C239.419 107.022 239.55 106.592 239.57 106.15C239.62 105.61 239.65 104.96 239.65 104.2V102.97H241.25V103.5C241.25 104.34 241.25 105.11 241.25 105.81C241.227 106.428 241.119 107.041 240.93 107.63C240.773 108.12 240.461 108.544 240.04 108.84C239.495 109.166 238.863 109.316 238.23 109.27V109.27ZM236.64 99.44H239.64V97.34C239.64 96.59 239.64 95.95 239.59 95.43C239.584 95.0116 239.47 94.6018 239.26 94.24C239.14 94.0947 238.986 93.9819 238.811 93.9119C238.637 93.842 238.447 93.8173 238.26 93.84C238.058 93.8257 237.856 93.858 237.669 93.9343C237.482 94.0106 237.314 94.1289 237.18 94.28C236.919 94.6525 236.761 95.087 236.72 95.54C236.637 96.1665 236.601 96.7982 236.61 97.43L236.64 99.44Z" fill="black"/>
<path d="M247.11 109.27C246.482 109.303 245.858 109.157 245.31 108.85C244.857 108.568 244.506 108.147 244.31 107.65C244.086 107.057 243.951 106.433 243.91 105.8C243.91 105.09 243.83 104.31 243.83 103.46V97.94C243.826 97.2154 243.859 96.4912 243.93 95.77C243.982 95.1616 244.127 94.5647 244.36 94C244.562 93.5119 244.912 93.0993 245.36 92.82C245.901 92.5141 246.519 92.3684 247.14 92.4C247.75 92.3627 248.357 92.5127 248.88 92.83C249.296 93.1297 249.608 93.5531 249.77 94.04C249.962 94.6221 250.073 95.2278 250.1 95.84C250.1 96.53 250.16 97.27 250.16 98.07V100.81H245.5V104.13C245.466 105.07 245.55 106.011 245.75 106.93C245.821 107.216 245.995 107.466 246.238 107.632C246.482 107.798 246.778 107.868 247.07 107.83C247.26 107.85 247.451 107.821 247.626 107.746C247.801 107.671 247.954 107.552 248.07 107.4C248.295 107.02 248.425 106.591 248.45 106.15C248.45 105.61 248.52 104.96 248.52 104.2V102.97H250.17V103.5C250.17 104.34 250.17 105.11 250.12 105.81C250.101 106.429 249.994 107.042 249.8 107.63C249.651 108.123 249.336 108.551 248.91 108.84C248.368 109.165 247.74 109.315 247.11 109.27V109.27ZM245.52 99.44H248.52V97.34C248.52 96.59 248.52 95.95 248.47 95.43C248.468 95.0109 248.354 94.6 248.14 94.24C248.02 94.0947 247.866 93.9819 247.691 93.9119C247.516 93.842 247.327 93.8173 247.14 93.84C246.94 93.825 246.739 93.8569 246.553 93.9333C246.367 94.0097 246.202 94.1284 246.07 94.28C245.801 94.6492 245.639 95.085 245.6 95.54C245.522 96.167 245.486 96.7983 245.49 97.43L245.52 99.44Z" fill="black"/>
<path d="M253.17 109.07V89.49H254.83V109.07H253.17Z" fill="black"/>
<path d="M260.54 109.19C260.137 109.213 259.736 109.122 259.382 108.927C259.028 108.733 258.737 108.443 258.54 108.09C258.037 107.116 257.806 106.024 257.87 104.93V102.82C257.853 102.299 257.981 101.783 258.24 101.33C258.496 100.906 258.837 100.538 259.24 100.25C259.727 99.922 260.243 99.6375 260.78 99.4C261.37 99.13 262 98.86 262.67 98.57V97.45C262.67 96.61 262.67 95.92 262.6 95.39C262.597 94.9732 262.472 94.5664 262.24 94.22C262.114 94.0836 261.958 93.9784 261.785 93.9124C261.611 93.8465 261.425 93.8217 261.24 93.84C261.056 93.8241 260.872 93.8491 260.699 93.913C260.526 93.977 260.369 94.0784 260.24 94.21C259.983 94.5512 259.836 94.963 259.82 95.39C259.743 96.1107 259.71 96.8353 259.72 97.56V97.97H258.06V97.53C258.06 96.87 258.06 96.23 258.13 95.62C258.166 95.054 258.291 94.4972 258.5 93.97C258.685 93.4973 259.013 93.0948 259.44 92.82C259.991 92.5095 260.619 92.3637 261.25 92.4C261.876 92.3664 262.5 92.4974 263.06 92.78C263.491 93.0422 263.814 93.4502 263.97 93.93C264.17 94.5304 264.278 95.1574 264.29 95.79C264.29 96.53 264.34 97.39 264.34 98.35V109.07H262.69V107.84C262.614 108.031 262.506 108.207 262.37 108.36C262.173 108.601 261.928 108.798 261.65 108.94C261.307 109.115 260.925 109.201 260.54 109.19V109.19ZM260.84 107.83C261.259 107.832 261.668 107.703 262.01 107.46C262.294 107.28 262.536 107.041 262.72 106.76V99.88C262.03 100.19 261.48 100.45 261.05 100.67C260.68 100.837 260.341 101.067 260.05 101.35C259.827 101.583 259.675 101.874 259.61 102.19C259.521 102.614 259.481 103.047 259.49 103.48V104.79C259.452 105.579 259.54 106.369 259.75 107.13C259.819 107.357 259.967 107.552 260.166 107.68C260.366 107.809 260.605 107.862 260.84 107.83V107.83Z" fill="black"/>
<path d="M267.61 109.07V92.6H269.26V94.21C269.444 93.6902 269.796 93.2466 270.26 92.95C270.753 92.5733 271.36 92.3758 271.98 92.39C272.316 92.3825 272.649 92.4515 272.954 92.5918C273.259 92.7322 273.528 92.9402 273.74 93.2C274.261 93.9506 274.501 94.8601 274.42 95.77V109.07H272.77V95.64C272.799 95.3849 272.772 95.1265 272.691 94.883C272.61 94.6394 272.477 94.4165 272.3 94.23C271.983 93.9683 271.581 93.8298 271.17 93.84C270.867 93.8403 270.566 93.891 270.28 93.99C269.992 94.0948 269.744 94.2871 269.57 94.54C269.37 94.8816 269.276 95.2749 269.3 95.67V109.07H267.61Z" fill="black"/>
<path d="M280.65 109.27C280.028 109.304 279.409 109.154 278.87 108.84C278.415 108.556 278.064 108.131 277.87 107.63C277.654 107.038 277.523 106.419 277.48 105.79C277.43 105.09 277.4 104.31 277.4 103.46V97.78C277.391 96.8719 277.465 95.9648 277.62 95.07C277.722 94.3418 278.043 93.6618 278.54 93.12C278.831 92.8607 279.172 92.6633 279.541 92.5395C279.911 92.4158 280.302 92.3683 280.69 92.4C281.301 92.3667 281.91 92.5016 282.45 92.79C282.863 93.0586 283.176 93.4557 283.34 93.92C283.538 94.4804 283.652 95.0665 283.68 95.66C283.68 96.33 283.74 97.06 283.74 97.87V98.39H282.06V97.39C282.06 96.62 282.06 95.98 282.01 95.46C282.003 95.0498 281.886 94.649 281.67 94.3C281.549 94.1565 281.395 94.0456 281.22 93.9774C281.045 93.9093 280.856 93.8861 280.67 93.91C280.467 93.8941 280.263 93.9256 280.073 94.002C279.884 94.0783 279.715 94.1974 279.58 94.35C279.324 94.7169 279.169 95.1444 279.13 95.59C279.053 96.2136 279.016 96.8416 279.02 97.47V104.07C279.013 104.771 279.043 105.472 279.11 106.17C279.131 106.605 279.276 107.026 279.53 107.38C279.667 107.519 279.833 107.627 280.016 107.694C280.2 107.762 280.396 107.787 280.59 107.77C280.779 107.786 280.97 107.756 281.144 107.681C281.319 107.606 281.472 107.489 281.59 107.34C281.816 106.964 281.943 106.538 281.96 106.1C282.01 105.56 282.03 104.91 282.03 104.1V102.86H283.71V103.35C283.71 104.21 283.69 105 283.65 105.72C283.629 106.353 283.518 106.979 283.32 107.58C283.161 108.076 282.84 108.506 282.41 108.8C281.88 109.121 281.27 109.284 280.65 109.27V109.27Z" fill="black"/>
<path d="M289.58 109.27C288.952 109.303 288.328 109.157 287.78 108.85C287.327 108.567 286.977 108.146 286.78 107.65C286.559 107.056 286.428 106.433 286.39 105.8C286.33 105.09 286.31 104.31 286.31 103.46V97.94C286.306 97.2154 286.339 96.4912 286.41 95.77C286.455 95.1615 286.597 94.564 286.83 94C287.036 93.5147 287.385 93.1033 287.83 92.82C288.371 92.5141 288.989 92.3684 289.61 92.4C290.22 92.3627 290.827 92.5127 291.35 92.83C291.766 93.1297 292.078 93.5531 292.24 94.04C292.432 94.6221 292.543 95.2278 292.57 95.84C292.57 96.53 292.63 97.27 292.63 98.07V100.81H287.97V104.13C287.936 105.07 288.02 106.011 288.22 106.93C288.291 107.216 288.465 107.466 288.708 107.632C288.952 107.798 289.248 107.868 289.54 107.83C289.729 107.85 289.921 107.821 290.096 107.746C290.271 107.671 290.424 107.552 290.54 107.4C290.761 107.019 290.888 106.59 290.91 106.15C290.96 105.61 290.99 104.96 290.99 104.2V102.97H292.6V103.5C292.6 104.34 292.6 105.11 292.55 105.81C292.526 106.428 292.419 107.041 292.23 107.63C292.077 108.122 291.764 108.548 291.34 108.84C290.809 109.156 290.196 109.306 289.58 109.27V109.27ZM287.99 99.44H290.99V97.34C290.99 96.59 290.99 95.95 290.94 95.43C290.934 95.0116 290.82 94.6018 290.61 94.24C290.49 94.0947 290.336 93.9819 290.161 93.9119C289.986 93.842 289.797 93.8173 289.61 93.84C289.408 93.8257 289.206 93.858 289.019 93.9343C288.831 94.0106 288.664 94.1289 288.53 94.28C288.269 94.6525 288.11 95.087 288.07 95.54C287.987 96.1665 287.951 96.7982 287.96 97.43L287.99 99.44Z" fill="black"/>
<path d="M301.51 109.07L299.56 92.6H301.08L302.08 102.34L302.34 105.76H302.48L302.81 102.33L304.2 92.6H305.61L307.13 101.98L307.57 105.76H307.68L307.9 101.96L308.73 92.6H310.17L308.27 109.07H306.63L305 94.98L303.08 109.07H301.51Z" fill="black"/>
<path d="M315.52 109.27C314.893 109.303 314.268 109.157 313.72 108.85C313.268 108.567 312.917 108.146 312.72 107.65C312.504 107.055 312.373 106.432 312.33 105.8C312.28 105.09 312.25 104.31 312.25 103.46V97.94C312.246 97.2154 312.279 96.4912 312.35 95.77C312.4 95.1622 312.542 94.5655 312.77 94C312.977 93.5147 313.325 93.1033 313.77 92.82C314.312 92.5141 314.929 92.3684 315.55 92.4C316.16 92.3627 316.767 92.5127 317.29 92.83C317.708 93.1391 318.016 93.5735 318.17 94.07C318.362 94.6521 318.473 95.2578 318.5 95.87C318.5 96.56 318.56 97.3 318.56 98.1V100.84H313.9V104.16C313.867 105.1 313.951 106.041 314.15 106.96C314.221 107.246 314.395 107.496 314.639 107.662C314.882 107.828 315.178 107.898 315.47 107.86C315.66 107.88 315.851 107.851 316.026 107.776C316.202 107.701 316.354 107.582 316.47 107.43C316.696 107.051 316.823 106.621 316.84 106.18C316.901 105.532 316.928 104.881 316.92 104.23V102.97H318.53V103.5C318.53 104.34 318.53 105.11 318.48 105.81C318.457 106.428 318.349 107.041 318.16 107.63C318.007 108.122 317.694 108.548 317.27 108.84C316.742 109.154 316.133 109.304 315.52 109.27V109.27ZM313.93 99.44H316.93V97.34C316.93 96.59 316.93 95.95 316.93 95.43C316.929 95.0109 316.815 94.6 316.6 94.24C316.48 94.0947 316.326 93.9819 316.151 93.9119C315.977 93.842 315.787 93.8173 315.6 93.84C315.398 93.8257 315.196 93.858 315.009 93.9343C314.822 94.0106 314.654 94.1289 314.52 94.28C314.259 94.6525 314.101 95.087 314.06 95.54C313.983 96.167 313.946 96.7983 313.95 97.43L313.93 99.44Z" fill="black"/>
<path d="M325.39 109.19C324.954 109.186 324.524 109.087 324.13 108.9C323.671 108.68 323.314 108.294 323.13 107.82V109.07H321.48V89.49H323.17V94C323.249 93.5471 323.499 93.1421 323.87 92.87C324.204 92.5873 324.623 92.4221 325.06 92.4C325.407 92.3547 325.76 92.3938 326.089 92.5139C326.418 92.634 326.714 92.8316 326.95 93.09C327.412 93.6654 327.707 94.3577 327.8 95.09C327.947 96.0327 328.017 96.9859 328.01 97.94V103.67C328.017 104.613 327.957 105.555 327.83 106.49C327.766 107.209 327.514 107.899 327.1 108.49C326.892 108.736 326.628 108.927 326.331 109.049C326.033 109.171 325.71 109.219 325.39 109.19V109.19ZM324.84 107.81C325.114 107.819 325.383 107.735 325.602 107.572C325.822 107.408 325.98 107.175 326.05 106.91C326.303 105.931 326.407 104.92 326.36 103.91V97.38C326.365 96.7488 326.335 96.1179 326.27 95.49C326.243 95.0497 326.105 94.6232 325.87 94.25C325.762 94.1021 325.618 93.9842 325.452 93.9072C325.286 93.8302 325.103 93.7968 324.92 93.81C324.596 93.7997 324.275 93.8756 323.99 94.03C323.67 94.2769 323.453 94.6329 323.38 95.03C323.213 95.8118 323.142 96.6111 323.17 97.41V104.07C323.127 105.04 323.232 106.011 323.48 106.95C323.576 107.226 323.762 107.462 324.009 107.618C324.257 107.774 324.549 107.842 324.84 107.81V107.81Z" fill="black"/>
<path d="M336.36 109.07V89.74H339.36C340.212 89.6793 341.058 89.92 341.75 90.42C342.319 90.9169 342.706 91.5889 342.85 92.33C343.055 93.2929 343.153 94.2756 343.14 95.26V103.54C343.168 104.625 343.043 105.709 342.77 106.76C342.588 107.474 342.155 108.099 341.55 108.52C340.868 108.923 340.081 109.115 339.29 109.07H336.36ZM338 107.67H339.36C339.782 107.688 340.198 107.573 340.55 107.34C340.925 107.016 341.173 106.569 341.25 106.08C341.437 105.189 341.517 104.28 341.49 103.37V95.07C341.559 94.0252 341.388 92.9785 340.99 92.01C340.852 91.7244 340.634 91.4853 340.362 91.3219C340.091 91.1585 339.777 91.0779 339.46 91.09H338V107.67Z" fill="black"/>
<path d="M349.31 109.27C348.683 109.303 348.058 109.157 347.51 108.85C347.055 108.569 346.704 108.148 346.51 107.65C346.286 107.057 346.151 106.433 346.11 105.8C346.06 105.09 346.03 104.31 346.03 103.46V97.94C346.026 97.2154 346.059 96.4912 346.13 95.77C346.183 95.1616 346.328 94.5647 346.56 94C346.766 93.514 347.114 93.1023 347.56 92.82C348.102 92.5151 348.719 92.3695 349.34 92.4C349.95 92.3627 350.558 92.5127 351.08 92.83C351.497 93.1297 351.808 93.5531 351.97 94.04C352.162 94.6221 352.273 95.2278 352.3 95.84C352.3 96.53 352.37 97.27 352.37 98.07V100.81H347.7V104.13C347.667 105.07 347.751 106.011 347.95 106.93C348.023 107.215 348.198 107.463 348.44 107.629C348.683 107.794 348.978 107.866 349.27 107.83C349.46 107.85 349.651 107.821 349.826 107.746C350.002 107.671 350.154 107.552 350.27 107.4C350.5 107.022 350.63 106.592 350.65 106.15C350.65 105.61 350.72 104.96 350.72 104.2V102.97H352.33V103.5C352.33 104.34 352.33 105.11 352.28 105.81C352.262 106.429 352.154 107.042 351.96 107.63C351.811 108.123 351.497 108.551 351.07 108.84C350.542 109.161 349.927 109.312 349.31 109.27V109.27ZM347.71 99.44H350.71V97.34C350.71 96.59 350.71 95.95 350.66 95.43C350.659 95.0109 350.545 94.6 350.33 94.24C350.212 94.0932 350.058 93.9793 349.882 93.9093C349.707 93.8392 349.517 93.8154 349.33 93.84C349.13 93.825 348.929 93.8569 348.743 93.9333C348.557 94.0097 348.392 94.1284 348.26 94.28C347.996 94.6515 347.834 95.0861 347.79 95.54C347.713 96.167 347.676 96.7983 347.68 97.43L347.71 99.44Z" fill="black"/>
<path d="M356.71 109.07L354.17 92.6H355.68L356.98 101.49L357.55 106.43H357.61L358.11 101.48L359.33 92.6H360.84L358.36 109.07H356.71Z" fill="black"/>
<path d="M366.17 109.27C365.542 109.303 364.918 109.157 364.37 108.85C363.918 108.567 363.567 108.146 363.37 107.65C363.154 107.055 363.023 106.432 362.98 105.8C362.92 105.09 362.9 104.31 362.9 103.46V97.94C362.896 97.2154 362.929 96.4912 363 95.77C363.05 95.1622 363.192 94.5655 363.42 94C363.626 93.5147 363.975 93.1033 364.42 92.82C364.962 92.5141 365.579 92.3684 366.2 92.4C366.81 92.3627 367.417 92.5127 367.94 92.83C368.356 93.1297 368.668 93.5531 368.83 94.04C369.022 94.6221 369.133 95.2278 369.16 95.84C369.16 96.53 369.22 97.27 369.22 98.07V100.81H364.56V104.13C364.527 105.07 364.611 106.011 364.81 106.93C364.881 107.216 365.055 107.466 365.298 107.632C365.542 107.798 365.838 107.868 366.13 107.83C366.32 107.85 366.511 107.821 366.686 107.746C366.861 107.671 367.014 107.552 367.13 107.4C367.356 107.021 367.483 106.591 367.5 106.15C367.55 105.61 367.58 104.96 367.58 104.2V102.97H369.17V103.5C369.17 104.34 369.17 105.11 369.12 105.81C369.097 106.428 368.989 107.041 368.8 107.63C368.647 108.122 368.334 108.548 367.91 108.84C367.385 109.152 366.78 109.302 366.17 109.27V109.27ZM364.58 99.44H367.58V97.34C367.58 96.59 367.58 95.95 367.53 95.43C367.529 95.0109 367.415 94.6 367.2 94.24C367.08 94.0947 366.926 93.9819 366.751 93.9119C366.576 93.842 366.387 93.8173 366.2 93.84C365.998 93.8257 365.796 93.858 365.609 93.9343C365.422 94.0106 365.254 94.1289 365.12 94.28C364.859 94.6525 364.7 95.087 364.66 95.54C364.582 96.167 364.546 96.7983 364.55 97.43L364.58 99.44Z" fill="black"/>
<path d="M372.17 109.07V89.49H373.83V109.07H372.17Z" fill="black"/>
<path d="M380.23 109.27C379.598 109.306 378.968 109.157 378.42 108.84C377.964 108.556 377.613 108.131 377.42 107.63C377.191 107.034 377.053 106.407 377.01 105.77C376.95 105.06 376.92 104.27 376.92 103.42V97.89C376.924 96.9447 377.008 96.0013 377.17 95.07C377.256 94.3244 377.574 93.6248 378.08 93.07C378.375 92.8084 378.721 92.6097 379.096 92.4859C379.471 92.3621 379.867 92.3159 380.26 92.35C380.878 92.317 381.493 92.4628 382.03 92.77C382.478 93.0404 382.828 93.4468 383.03 93.93C383.248 94.4907 383.383 95.0803 383.43 95.68C383.49 96.34 383.52 97.07 383.52 97.84V103.37C383.52 104.21 383.52 104.98 383.44 105.69C383.404 106.325 383.276 106.952 383.06 107.55C382.881 108.05 382.549 108.481 382.11 108.78C381.548 109.131 380.892 109.302 380.23 109.27V109.27ZM380.23 107.83C380.423 107.838 380.615 107.799 380.79 107.715C380.964 107.631 381.115 107.506 381.23 107.35C381.482 106.942 381.633 106.479 381.67 106C381.743 105.336 381.776 104.668 381.77 104V97.52C381.776 96.8819 381.743 96.244 381.67 95.61C381.63 95.1507 381.479 94.7079 381.23 94.32C381.116 94.164 380.965 94.0392 380.79 93.957C380.615 93.8749 380.423 93.8381 380.23 93.85C380.024 93.8319 379.816 93.8653 379.626 93.9473C379.435 94.0294 379.268 94.1574 379.14 94.32C378.875 94.7016 378.716 95.1468 378.68 95.61C378.612 96.2444 378.578 96.882 378.58 97.52V104C378.576 104.668 378.613 105.336 378.69 106C378.724 106.482 378.882 106.947 379.15 107.35C379.276 107.513 379.441 107.642 379.63 107.726C379.818 107.809 380.024 107.845 380.23 107.83V107.83Z" fill="black"/>
<path d="M386.68 111.98V92.6H388.33V93.86C388.5 93.3909 388.838 93.0022 389.28 92.77C389.668 92.5775 390.096 92.4782 390.53 92.48C390.849 92.4534 391.171 92.504 391.467 92.6276C391.762 92.7512 392.024 92.944 392.23 93.19C392.643 93.765 392.901 94.4365 392.98 95.14C393.107 96.0712 393.167 97.0102 393.16 97.95V103.86C393.17 104.786 393.087 105.711 392.91 106.62C392.789 107.337 392.474 108.008 392 108.56C391.752 108.806 391.454 108.997 391.126 109.119C390.799 109.241 390.449 109.293 390.1 109.27C389.705 109.267 389.325 109.122 389.03 108.86C388.719 108.589 388.479 108.245 388.33 107.86V111.95L386.68 111.98ZM390.01 107.81C390.283 107.822 390.552 107.739 390.771 107.575C390.99 107.411 391.145 107.176 391.21 106.91C391.456 105.93 391.557 104.919 391.51 103.91V97.4C391.515 96.7688 391.485 96.1379 391.42 95.51C391.399 95.0714 391.268 94.6451 391.04 94.27C390.925 94.1167 390.773 93.9955 390.598 93.9185C390.423 93.8414 390.23 93.8109 390.04 93.83C389.715 93.8242 389.395 93.9034 389.11 94.06C388.79 94.3053 388.576 94.6627 388.51 95.06C388.334 95.837 388.26 96.6338 388.29 97.43V103.98C388.249 104.957 388.357 105.935 388.61 106.88C388.697 107.175 388.885 107.429 389.141 107.599C389.397 107.769 389.705 107.844 390.01 107.81V107.81Z" fill="black"/>
<path d="M399.24 109.27C398.612 109.303 397.988 109.157 397.44 108.85C396.987 108.567 396.637 108.146 396.44 107.65C396.215 107.057 396.083 106.433 396.05 105.8C395.99 105.087 395.96 104.307 395.96 103.46V97.94C395.96 97.16 395.96 96.44 396.06 95.77C396.112 95.1616 396.257 94.5647 396.49 94C396.696 93.5147 397.045 93.1033 397.49 92.82C398.028 92.5154 398.642 92.3698 399.26 92.4C399.87 92.3627 400.477 92.5127 401 92.83C401.419 93.1267 401.732 93.5512 401.89 94.04C402.09 94.6204 402.204 95.2267 402.23 95.84C402.23 96.53 402.29 97.27 402.29 98.07V100.81H397.62V104.13C397.592 105.07 397.676 106.01 397.87 106.93C397.945 107.216 398.121 107.464 398.366 107.63C398.611 107.795 398.907 107.866 399.2 107.83C399.39 107.85 399.581 107.821 399.756 107.746C399.931 107.671 400.084 107.552 400.2 107.4C400.429 107.022 400.56 106.592 400.58 106.15C400.58 105.61 400.66 104.96 400.66 104.2V102.97H402.26V103.5C402.26 104.34 402.26 105.11 402.26 105.81C402.244 106.428 402.14 107.041 401.95 107.63C401.793 108.12 401.48 108.544 401.06 108.84C400.512 109.168 399.876 109.318 399.24 109.27V109.27ZM397.64 99.44H400.64V97.34C400.64 96.59 400.64 95.95 400.59 95.43C400.579 95.0124 400.465 94.6038 400.26 94.24C400.14 94.0947 399.986 93.9819 399.811 93.9119C399.636 93.842 399.447 93.8173 399.26 93.84C399.06 93.8258 398.859 93.8581 398.673 93.9344C398.488 94.0108 398.322 94.129 398.19 94.28C397.925 94.6515 397.763 95.0861 397.72 95.54C397.642 96.167 397.606 96.7983 397.61 97.43L397.64 99.44Z" fill="black"/>
<path d="M405.23 109.07V92.6H406.88V94.43C407.043 93.838 407.394 93.315 407.88 92.94C408.415 92.5657 409.057 92.3761 409.71 92.4C409.71 92.4 409.71 92.47 409.71 92.61C409.71 92.75 409.71 92.91 409.71 93.1V93.79C409.372 93.7929 409.036 93.84 408.71 93.93C408.371 94.0271 408.055 94.1902 407.78 94.41C407.433 94.6974 407.129 95.0344 406.88 95.41V109.07H405.23Z" fill="black"/>
<path d="M411.17 109.07L416.17 89.49H417.67L412.67 109.07H411.17Z" fill="black"/>
<path d="M420.23 109.07V89.74H423.23C424.085 89.6812 424.933 89.9216 425.63 90.42C426.192 90.9207 426.575 91.5915 426.72 92.33C426.925 93.2929 427.022 94.2756 427.01 95.26V103.54C427.043 104.626 426.918 105.71 426.64 106.76C426.464 107.477 426.029 108.103 425.42 108.52C424.741 108.921 423.958 109.113 423.17 109.07H420.23ZM421.87 107.67H423.23C423.652 107.688 424.068 107.573 424.42 107.34C424.815 107.021 425.082 106.57 425.17 106.07C425.347 105.178 425.424 104.269 425.4 103.36V95.07C425.469 94.0252 425.298 92.9785 424.9 92.01C424.762 91.7245 424.544 91.4853 424.272 91.3219C424 91.1585 423.687 91.0779 423.37 91.09H421.87V107.67Z" fill="black"/>
<path d="M433.17 109.27C432.542 109.303 431.918 109.157 431.37 108.85C430.917 108.567 430.567 108.146 430.37 107.65C430.145 107.057 430.013 106.433 429.98 105.8C429.92 105.087 429.89 104.307 429.89 103.46V97.94C429.89 97.16 429.89 96.44 429.99 95.77C430.042 95.1616 430.187 94.5647 430.42 94C430.626 93.5147 430.975 93.1033 431.42 92.82C431.958 92.5139 432.572 92.3681 433.19 92.4C433.8 92.3627 434.407 92.5127 434.93 92.83C435.349 93.1267 435.662 93.5512 435.82 94.04C436.02 94.6204 436.134 95.2267 436.16 95.84C436.16 96.53 436.22 97.27 436.22 98.07V100.81H431.55V104.13C431.522 105.07 431.606 106.01 431.8 106.93C431.875 107.216 432.051 107.464 432.296 107.63C432.541 107.795 432.837 107.866 433.13 107.83C433.32 107.85 433.511 107.821 433.686 107.746C433.861 107.671 434.014 107.552 434.13 107.4C434.359 107.022 434.49 106.592 434.51 106.15C434.51 105.61 434.59 104.96 434.59 104.2V102.97H436.17V103.5C436.17 104.34 436.17 105.11 436.17 105.81C436.149 106.428 436.045 107.04 435.86 107.63C435.703 108.12 435.39 108.544 434.97 108.84C434.428 109.164 433.8 109.314 433.17 109.27V109.27ZM431.57 99.44H434.57V97.34C434.57 96.59 434.57 95.95 434.57 95.43C434.561 95.0107 434.444 94.6009 434.23 94.24C434.112 94.0925 433.958 93.978 433.783 93.9079C433.607 93.8378 433.417 93.8144 433.23 93.84C433.03 93.8258 432.829 93.8581 432.643 93.9344C432.458 94.0108 432.292 94.129 432.16 94.28C431.895 94.6515 431.733 95.0861 431.69 95.54C431.612 96.167 431.576 96.7983 431.58 97.43L431.57 99.44Z" fill="black"/>
<path d="M441.9 109.29C441.415 109.326 440.929 109.244 440.483 109.051C440.037 108.857 439.645 108.559 439.34 108.18C438.716 107.096 438.433 105.848 438.53 104.6V103.19H440.17V104.32C440.131 105.194 440.264 106.067 440.56 106.89C440.639 107.12 440.779 107.323 440.965 107.48C441.15 107.637 441.375 107.741 441.614 107.781C441.854 107.821 442.1 107.795 442.326 107.707C442.552 107.619 442.751 107.471 442.9 107.28C443.184 106.696 443.305 106.047 443.25 105.4C443.249 105.002 443.222 104.605 443.17 104.21C443.1 103.793 442.961 103.391 442.76 103.02C442.472 102.531 442.112 102.089 441.69 101.71L440.46 100.56C439.779 99.9606 439.236 99.2202 438.87 98.39C438.569 97.6467 438.417 96.8518 438.42 96.05C438.342 95.0568 438.65 94.0718 439.28 93.3C439.573 93.0005 439.926 92.7657 440.315 92.6106C440.704 92.4556 441.121 92.3839 441.54 92.4C442.118 92.3901 442.686 92.5538 443.17 92.87C443.689 93.2662 444.065 93.8209 444.24 94.45C444.525 95.4509 444.653 96.4899 444.62 97.53V98.53H443.07V97.2C443.117 96.3412 442.995 95.4816 442.71 94.67C442.623 94.4404 442.471 94.2415 442.271 94.098C442.072 93.9546 441.835 93.873 441.59 93.8634C441.345 93.8538 441.102 93.9167 440.892 94.0441C440.682 94.1715 440.515 94.3579 440.41 94.58C440.065 95.4717 439.988 96.4452 440.19 97.38C440.281 97.7368 440.433 98.0751 440.64 98.38C440.934 98.8047 441.269 99.1999 441.64 99.56L442.81 100.69C443.512 101.339 444.074 102.125 444.46 103C444.779 103.788 444.939 104.63 444.93 105.48C444.974 106.447 444.719 107.403 444.2 108.22C443.937 108.576 443.588 108.861 443.186 109.048C442.785 109.235 442.342 109.318 441.9 109.29V109.29Z" fill="black"/>
<path d="M447.43 91.07V89.48H449.08V91.07H447.43ZM447.43 109.07V92.6H449.1V109.07H447.43Z" fill="black"/>
<path d="M455.58 111.62C454.974 111.649 454.367 111.568 453.79 111.38C453.286 111.228 452.81 110.995 452.38 110.69L453.01 109.42C453.32 109.649 453.655 109.84 454.01 109.99C454.513 110.182 455.052 110.264 455.59 110.23C455.806 110.226 456.019 110.172 456.211 110.073C456.403 109.975 456.571 109.833 456.7 109.66C457.004 109.232 457.152 108.714 457.12 108.19V106.38C456.964 106.828 456.647 107.203 456.23 107.43C455.871 107.6 455.477 107.685 455.08 107.68C454.751 107.7 454.421 107.644 454.116 107.518C453.811 107.391 453.539 107.197 453.32 106.95C452.873 106.368 452.586 105.678 452.49 104.95C452.343 104.014 452.272 103.068 452.28 102.12V97.94C452.27 96.9849 452.37 96.0319 452.58 95.1C452.732 94.3571 453.077 93.6674 453.58 93.1C453.944 92.735 454.414 92.4956 454.923 92.4164C455.432 92.3373 455.953 92.4226 456.41 92.66C456.755 92.8566 457.015 93.1735 457.14 93.55V92.55H458.79V107.96C458.781 108.296 458.741 108.631 458.67 108.96C458.588 109.37 458.436 109.762 458.22 110.12C457.977 110.533 457.633 110.877 457.22 111.12C456.722 111.418 456.159 111.59 455.58 111.62V111.62ZM455.72 106.27C456.019 106.281 456.31 106.173 456.53 105.97C456.799 105.643 456.962 105.242 457 104.82C457.118 103.995 457.168 103.163 457.15 102.33V97.54C457.185 96.5988 457.095 95.6572 456.88 94.74C456.809 94.4598 456.64 94.2145 456.403 94.0492C456.166 93.8839 455.877 93.8096 455.59 93.84C455.385 93.8218 455.179 93.8552 454.99 93.9373C454.801 94.0194 454.636 94.1476 454.51 94.31C454.249 94.6926 454.093 95.1378 454.06 95.6C453.987 96.2373 453.954 96.8786 453.96 97.52V102.36C453.911 103.372 454.029 104.386 454.31 105.36C454.411 105.647 454.604 105.891 454.859 106.056C455.115 106.221 455.417 106.296 455.72 106.27V106.27Z" fill="black"/>
<path d="M462.17 109.07V92.6H463.82V94.21C464.007 93.692 464.358 93.2495 464.82 92.95C465.313 92.5733 465.92 92.3758 466.54 92.39C466.876 92.3825 467.208 92.4515 467.513 92.5918C467.818 92.7322 468.087 92.9402 468.3 93.2C468.821 93.9506 469.061 94.8601 468.98 95.77V109.07H467.33V95.64C467.359 95.3849 467.332 95.1265 467.251 94.883C467.17 94.6394 467.036 94.4165 466.86 94.23C466.542 93.9683 466.141 93.8298 465.73 93.84C465.427 93.8403 465.126 93.891 464.84 93.99C464.552 94.0948 464.303 94.2871 464.13 94.54C463.93 94.8816 463.836 95.2749 463.86 95.67V109.07H462.17Z" fill="black"/>
<path d="M475.25 109.27C474.622 109.303 473.998 109.157 473.45 108.85C472.995 108.569 472.644 108.148 472.45 107.65C472.225 107.057 472.093 106.433 472.06 105.8C472 105.087 471.97 104.307 471.97 103.46V97.94C471.97 97.16 471.97 96.44 472.07 95.77C472.122 95.1616 472.267 94.5647 472.5 94C472.705 93.514 473.054 93.1023 473.5 92.82C474.042 92.5151 474.659 92.3695 475.28 92.4C475.89 92.3627 476.497 92.5127 477.02 92.83C477.436 93.1297 477.748 93.5531 477.91 94.04C478.102 94.6221 478.213 95.2278 478.24 95.84C478.24 96.53 478.31 97.27 478.31 98.07V100.81H473.64V104.13C473.612 105.07 473.696 106.01 473.89 106.93C473.963 107.215 474.137 107.463 474.38 107.629C474.623 107.794 474.918 107.866 475.21 107.83C475.4 107.85 475.591 107.821 475.766 107.746C475.941 107.671 476.094 107.552 476.21 107.4C476.439 107.022 476.57 106.592 476.59 106.15C476.64 105.61 476.67 104.96 476.67 104.2V102.97H478.27V103.5C478.27 104.34 478.27 105.11 478.22 105.81C478.199 106.428 478.095 107.04 477.91 107.63C477.753 108.122 477.436 108.548 477.01 108.84C476.482 109.161 475.867 109.312 475.25 109.27V109.27ZM473.65 99.44H476.65V97.34C476.65 96.59 476.65 95.95 476.65 95.43C476.641 95.0107 476.524 94.6009 476.31 94.24C476.192 94.0932 476.037 93.9793 475.862 93.9093C475.687 93.8392 475.497 93.8154 475.31 93.84C475.11 93.825 474.909 93.8569 474.723 93.9333C474.537 94.0097 474.372 94.1284 474.24 94.28C473.976 94.6515 473.813 95.0861 473.77 95.54C473.692 96.167 473.656 96.7983 473.66 97.43L473.65 99.44Z" fill="black"/>
<path d="M481.24 109.07V92.6H482.89V94.43C483.053 93.838 483.404 93.315 483.89 92.94C484.422 92.5677 485.061 92.3782 485.71 92.4C485.71 92.4 485.71 92.47 485.71 92.61C485.71 92.75 485.71 92.91 485.71 93.1V93.79C485.372 93.7922 485.036 93.8393 484.71 93.93C484.37 94.0248 484.054 94.1882 483.78 94.41C483.43 94.6948 483.126 95.0321 482.88 95.41V109.07H481.24Z" fill="black"/>
<path d="M63.8601 57.31C63.7501 44.86 63.3901 32.74 62.5001 25.87C62.3483 24.0837 62.0132 22.3177 61.5001 20.6C61.2401 19.96 60.8301 19.85 60.2601 20.24C54.7301 23.86 40.2601 52.24 34.1601 62.74C27.5901 74.06 12.0901 103.87 10.6401 109.52C10.621 109.564 10.6186 109.614 10.6333 109.66C10.648 109.706 10.6789 109.745 10.7201 109.77C11.2201 110.1 13.1001 110.77 13.1001 111.9C13.1001 112.81 9.61009 113.33 7.25009 113.54C5.55566 113.708 3.84526 113.486 2.25009 112.89C0.900092 112.37 -0.259911 111.61 0.0200888 110.64C5.53009 96.85 18.2901 71.51 25.3501 58.98C29.6301 51.38 38.6501 36.44 43.4101 29.13C45.2501 26.3 47.7501 21.81 50.9101 18.04C51.701 17.0856 52.5671 16.1961 53.5001 15.38C58.1701 11.3 60.7801 11.19 63.2201 11.58C66.6001 12 68.9201 14.39 70.4701 18.73C70.9776 20.1982 71.3426 21.7119 71.5601 23.25C72.5601 29.61 73.0801 40.09 73.4101 51.25L63.8601 57.31Z" fill="black"/>
<path d="M73.78 99.36C73.78 99.36 73.53 104.12 69.01 104.12C63.5 104.12 63.5 99.61 63.5 99.61C63.5 99.61 63.72 90.61 63.83 78.76C67.1 76.76 70.53 74.71 73.83 72.76C73.93 87.48 73.78 99.36 73.78 99.36Z" fill="black"/>
<path d="M87.5499 55.32C87.5458 56.2247 87.6431 57.127 87.8399 58.01L76.3999 64.88L73.7499 66.47L63.8799 72.41L62.5399 73.22C58.0499 75.93 53.7699 78.52 50.4599 80.55C48.5999 81.68 45.8399 81.55 43.7199 81.03C42.3785 80.7696 41.0861 80.3006 39.8899 79.64C39.783 79.5664 39.6964 79.4669 39.6383 79.3509C39.5801 79.2348 39.5522 79.106 39.5572 78.9763C39.5622 78.8465 39.5999 78.7202 39.6668 78.6089C39.7337 78.4977 39.8277 78.4052 39.9399 78.34C46.3799 74.56 54.7299 69.41 62.7599 64.39L63.8899 63.68L73.5999 57.56L76.5999 55.66C83.5999 51.25 88.7099 47.92 89.6899 47.29C88.6872 49.6675 87.9819 52.1597 87.5899 54.71C87.5599 54.9 87.5599 55.07 87.5499 55.32Z" fill="#E75B10"/>
<path d="M89.8299 47.19L88.3299 57.72L87.8399 58.01C87.6431 57.127 87.5458 56.2247 87.5499 55.32C87.5499 55.1 87.5499 54.9 87.5499 54.71C87.9419 52.1597 88.6472 49.6675 89.6499 47.29L89.8299 47.19Z" fill="black"/>
<path d="M126.01 24.46C117.17 25.62 110.7 32.29 108.65 34.4C98.65 45.68 98.36 50.95 97.65 54.96C97.9 62.24 106.17 65.96 109.65 68.26C119.43 74.26 121.94 78.79 121.94 83.05C122.19 88.57 117.83 94.52 117.04 95.46C105.81 110.85 76.34 126.08 66.04 128.95C63.83 129.59 53.14 130.56 50.78 129.78C50.7135 129.751 50.6568 129.704 50.617 129.644C50.5771 129.583 50.5559 129.512 50.5559 129.44C50.5559 129.368 50.5771 129.297 50.617 129.236C50.6568 129.176 50.7135 129.129 50.78 129.1C81.12 115.91 115.98 92.84 111.1 81.1C108.64 75.95 99.32 74.51 90.35 63.18C89.1579 61.676 88.3205 59.9225 87.9 58.05C87.7031 57.167 87.6059 56.2647 87.61 55.36C87.61 55.14 87.61 54.94 87.61 54.75C88.0019 52.1997 88.7073 49.7075 89.71 47.33C90.21 46.03 90.71 44.83 91.13 43.97C93.64 38.7 103.67 26.16 114.95 21.15C116.87 20.23 128.24 15.88 129.95 20.89C130.46 23.07 127.17 24.29 126.01 24.46Z" fill="black"/>
<path d="M175.07 0V141.07" stroke="black" stroke-width="1.1" stroke-miterlimit="10"/>
</g>
<defs>
<clipPath id="clip0_15_64">
<rect width="486.01" height="141.07" fill="white"/>
</clipPath>
</defs>
</svg>
