<svg width="305" height="279" viewBox="0 0 305 279" fill="none" xmlns="http://www.w3.org/2000/svg">
<path d="M149.848 107.615C149.59 78.4115 148.745 49.9817 146.658 33.8667C146.302 29.6766 145.516 25.5343 144.312 21.505C143.702 20.0037 142.74 19.7457 141.403 20.6605C128.432 29.152 94.4894 95.7228 80.1807 120.353C64.7695 146.906 28.4112 216.831 25.0099 230.084C24.9652 230.188 24.9596 230.305 24.9941 230.412C25.0286 230.52 25.1009 230.612 25.1976 230.671C26.3705 231.445 30.7803 233.016 30.7803 235.667C30.7803 237.801 22.5939 239.021 17.058 239.514C13.0834 239.908 9.07136 239.386 5.32957 237.989C2.16288 236.769 -0.558131 234.987 0.0986633 232.711C13.0234 200.364 42.9545 140.924 59.5151 111.533C69.5547 93.7054 90.7128 58.6608 101.878 41.5137C106.194 34.8754 112.059 24.3433 119.471 15.5C121.326 13.2613 123.358 11.1748 125.546 9.26043C136.501 -0.309999 142.623 -0.567997 148.347 0.346824C156.275 1.33202 161.717 6.93821 165.353 17.1185C166.543 20.5625 167.399 24.113 167.91 27.721C170.255 42.6397 171.475 67.2225 172.249 93.4005L149.848 107.615Z" fill="white"/>
<path d="M173.117 206.252C173.117 206.252 172.53 217.417 161.928 217.417C149.003 217.417 149.003 206.838 149.003 206.838C149.003 206.838 149.519 185.727 149.777 157.931C157.447 153.239 165.493 148.431 173.234 143.856C173.469 178.385 173.117 206.252 173.117 206.252Z" fill="white"/>
<path d="M205.417 102.947C205.408 105.07 205.636 107.186 206.098 109.257L179.263 125.372L173.047 129.102L149.895 143.035L146.752 144.935C136.219 151.292 126.18 157.368 118.416 162.129C114.053 164.78 107.578 164.475 102.606 163.255C99.459 162.644 96.4276 161.544 93.6216 159.995C93.3708 159.822 93.1678 159.589 93.0313 159.317C92.8949 159.044 92.8295 158.742 92.8412 158.438C92.8529 158.134 92.9413 157.837 93.0983 157.576C93.2552 157.315 93.4756 157.098 93.7389 156.945C108.845 148.079 128.432 135.998 147.268 124.223L149.918 122.557L172.695 108.202L179.732 103.745C196.152 93.4005 208.138 85.5893 210.437 84.1116C208.085 89.6884 206.431 95.5343 205.511 101.517C205.441 101.962 205.441 102.361 205.417 102.947Z" fill="#E75B10"/>
<path d="M295.633 30.5594C274.897 33.2804 259.72 48.9261 254.912 53.8755C231.455 80.3349 230.774 92.6968 229.109 102.103C229.695 119.18 249.094 127.906 257.257 133.301C280.198 147.375 286.086 158.001 286.086 167.994C286.672 180.942 276.445 194.899 274.592 197.104C248.25 233.204 179.122 268.929 154.961 275.661C149.777 277.162 124.702 279.437 119.166 277.608C119.01 277.541 118.877 277.43 118.784 277.288C118.69 277.146 118.641 276.98 118.641 276.81C118.641 276.641 118.69 276.475 118.784 276.333C118.877 276.191 119.01 276.08 119.166 276.013C190.335 245.073 272.105 190.958 260.658 163.419C254.888 151.339 233.026 147.961 211.985 121.385C209.189 117.857 207.225 113.744 206.238 109.351C205.777 107.28 205.548 105.163 205.558 103.041C205.558 102.525 205.558 102.056 205.558 101.61C206.478 95.6281 208.132 89.7823 210.484 84.2054C211.657 81.156 212.83 78.3411 213.815 76.3238C219.703 63.962 243.23 34.547 269.689 22.7951C274.193 20.637 300.864 10.4333 304.875 22.1852C306.071 27.2989 298.354 30.1606 295.633 30.5594Z" fill="white"/>
</svg>
